<?xml version="1.0" encoding="UTF-8"?>
<svg id="_레이어_1" data-name="레이어 1" xmlns="http://www.w3.org/2000/svg" viewBox="0 0 323.93 484.62">
  <g>
    <circle cx="158" cy="40" r="39.5"/>
    <path d="m158,1c21.5,0,39,17.5,39,39s-17.5,39-39,39-39-17.5-39-39S136.5,1,158,1m0-1c-22.09,0-40,17.91-40,40s17.91,40,40,40,40-17.91,40-40S180.09,0,158,0h0Z"/>
  </g>
  <g>
    <ellipse cx="158.5" cy="188" rx="50" ry="88.5"/>
    <path d="m158.5,100c27.29,0,49.5,39.48,49.5,88s-22.21,88-49.5,88-49.5-39.48-49.5-88,22.21-88,49.5-88m0-1c-27.89,0-50.5,39.85-50.5,89s22.61,89,50.5,89,50.5-39.85,50.5-89-22.61-89-50.5-89h0Z"/>
  </g>
  <g>
    <path d="m47.49,235.12c-.48,0-.95-.07-1.39-.21-4.66-1.47-6.81-10.78-5.91-25.56.93-15.21,4.9-34.58,11.18-54.54,12.15-38.64,29.78-68.92,40.13-68.92.48,0,.95.07,1.39.21,4.66,1.47,6.81,10.78,5.91,25.56-.93,15.21-4.9,34.58-11.18,54.54-12.15,38.64-29.78,68.92-40.13,68.92h0Z"/>
    <path d="m91.51,86.38c.43,0,.85.06,1.24.19,8.52,2.68,8.31,35.26-5.6,79.48-5.94,18.9-13.37,36.37-20.91,49.19-7.24,12.31-14.08,19.38-18.75,19.38-.43,0-.85-.06-1.24-.19-8.52-2.68-8.31-35.26,5.6-79.48,5.94-18.9,13.37-36.37,20.91-49.19,7.24-12.31,14.08-19.38,18.75-19.38m0-1c-10.53,0-28.23,29.9-40.61,69.27-13.01,41.36-15.22,77.5-4.95,80.73.49.16,1.01.23,1.54.23,10.53,0,28.23-29.9,40.61-69.27,13.01-41.36,15.22-77.5,4.95-80.73-.49-.16-1.01-.23-1.54-.23h0Z"/>
  </g>
  <g>
    <path d="m235.29,159.7c-8.17,0-18.76-14.08-24.64-32.76-3.14-9.99-4.51-19.87-3.85-27.83.65-7.8,3.15-12.77,7.04-14,.61-.19,1.26-.29,1.92-.29,8.17,0,18.76,14.08,24.64,32.76,3.14,9.99,4.51,19.87,3.85,27.83-.65,7.8-3.15,12.77-7.04,14-.61.19-1.26.29-1.92.29Z"/>
    <path d="m215.77,84.33v1h0c7.83,0,18.44,14.24,24.16,32.41,6.25,19.88,4.94,38.74-2.86,41.2-.56.18-1.16.27-1.77.27-7.83,0-18.44-14.24-24.16-32.41-3.12-9.93-4.48-19.74-3.83-27.64.62-7.48,3.06-12.42,6.69-13.56.56-.18,1.16-.27,1.77-.27v-1m0,0c-.71,0-1.4.1-2.07.31-8.48,2.67-10.05,21.67-3.52,42.45,6.02,19.14,16.82,33.11,25.11,33.11.71,0,1.4-.1,2.07-.31,8.48-2.67,10.05-21.67,3.52-42.45-6.02-19.14-16.82-33.11-25.11-33.11h0Z"/>
  </g>
  <g>
    <path d="m285.96,192.4c-2.14,0-4.32-.05-6.5-.16-11.64-.57-22.51-2.59-30.6-5.69-7.8-2.99-12.18-6.75-12-10.3.33-6.79,16.44-11.92,37.47-11.92,2.14,0,4.32.05,6.49.16,11.64.57,22.51,2.59,30.6,5.69,7.8,2.99,12.18,6.75,12,10.3-.33,6.79-16.44,11.92-37.46,11.92Z"/>
    <path d="m274.33,164.83c2.13,0,4.3.05,6.47.16,25.59,1.25,42.44,9.01,42.13,15.47-.31,6.42-16.55,11.44-36.97,11.44-2.13,0-4.31-.05-6.47-.16-25.59-1.25-42.44-9.01-42.13-15.47.31-6.41,16.55-11.44,36.97-11.44h0m0-1c-21.14,0-37.61,5.18-37.97,12.39-.39,7.94,18.9,15.33,43.08,16.52,2.21.11,4.39.16,6.52.16,21.14,0,37.61-5.18,37.97-12.39.39-7.94-18.9-15.33-43.08-16.52-2.21-.11-4.39-.16-6.52-.16h0Z"/>
  </g>
  <g>
    <path d="m109.53,375.5c-3.05,0-6.01-1.43-8.8-4.24-8.69-8.75-14.21-29.1-14.05-51.83.21-30.98,10.84-56.23,23.69-56.29,3.09,0,6.05,1.43,8.85,4.24,8.69,8.75,14.21,29.1,14.05,51.83-.21,30.98-10.84,56.23-23.69,56.29h-.04Z"/>
    <path d="m110.41,262.63v1h0c2.91,0,5.75,1.38,8.45,4.09,8.6,8.66,14.06,28.87,13.9,51.47-.1,15.01-2.65,29.12-7.17,39.73-4.4,10.34-10.09,16.04-16.06,16.07-2.91,0-5.75-1.38-8.45-4.09-8.6-8.66-14.06-28.87-13.9-51.47.1-15.01,2.65-29.12,7.17-39.73,4.4-10.34,10.09-16.04,16.02-16.07l.04-1m0,0s-.03,0-.05,0c-13.14.06-23.97,25.48-24.18,56.79-.22,31.27,10.23,56.57,23.35,56.57.02,0,.03,0,.05,0,13.14-.06,23.97-25.48,24.18-56.79.22-31.27-10.23-56.57-23.35-56.57h0Z"/>
  </g>
  <g>
    <path d="m208.53,375.5c-3.05,0-6.01-1.43-8.8-4.24-8.69-8.75-14.21-29.1-14.05-51.83.21-30.98,10.84-56.23,23.69-56.29,3.09,0,6.05,1.43,8.85,4.24,8.69,8.75,14.21,29.1,14.05,51.83-.21,30.98-10.84,56.23-23.69,56.29h-.04Z"/>
    <path d="m209.41,262.63v1h0c2.91,0,5.75,1.38,8.45,4.09,8.6,8.66,14.06,28.87,13.9,51.47-.1,15.01-2.65,29.12-7.17,39.73-4.4,10.34-10.09,16.04-16.06,16.07-2.91,0-5.75-1.38-8.45-4.09-8.6-8.66-14.06-28.87-13.9-51.47.1-15.01,2.65-29.12,7.17-39.73,4.4-10.34,10.09-16.04,16.02-16.07l.04-1m0,0s-.03,0-.05,0c-13.14.06-23.97,25.48-24.18,56.79-.22,31.27,10.23,56.57,23.35,56.57.02,0,.03,0,.05,0,13.14-.06,23.97-25.48,24.18-56.79.22-31.27-10.23-56.57-23.35-56.57h0Z"/>
  </g>
  <g>
    <ellipse cx="55" cy="394" rx="54.5" ry="16.5"/>
    <path d="m55,378c32.3,0,54,8.27,54,16s-21.7,16-54,16S1,401.73,1,394s21.7-16,54-16m0-1c-30.38,0-55,7.61-55,17s24.62,17,55,17,55-7.61,55-17-24.62-17-55-17h0Z"/>
  </g>
  <g>
    <path d="m173.75,484.12c-.78,0-1.52-.15-2.17-.45-8.29-3.74-4.98-29.07,7.39-56.46,11.15-24.7,26.33-43.33,35.29-43.33.78,0,1.52.15,2.17.45,8.29,3.74,4.98,29.07-7.39,56.46-11.15,24.7-26.33,43.33-35.29,43.33h0Z"/>
    <path d="m214.25,384.38c.71,0,1.38.14,1.97.4,3.65,1.65,5.02,8.43,3.75,18.59-1.34,10.69-5.38,23.91-11.39,37.21-5.46,12.09-12.07,23.13-18.62,31.08-6.26,7.6-12.17,11.96-16.22,11.96-.71,0-1.38-.14-1.97-.4-3.65-1.65-5.02-8.43-3.75-18.59,1.34-10.69,5.38-23.91,11.39-37.21,5.46-12.09,12.07-23.13,18.62-31.08,6.26-7.6,12.17-11.96,16.22-11.96m0-1c-9.07,0-24.32,18.31-35.75,43.62-12.5,27.68-15.7,53.26-7.14,57.12.73.33,1.53.49,2.38.49,9.07,0,24.32-18.31,35.75-43.62,12.5-27.68,15.7-53.26,7.14-57.12-.73-.33-1.53-.49-2.38-.49h0Z"/>
  </g>
</svg>